<?xml version="1.0" encoding="UTF-8" standalone="no"?>
<svg
    version="1.1"
    viewBox="0 0 461.50977 500"
    width="461.50977"
    height="500">
    <path d="m 451.33982,395.72369 c -72.89413,-44.9928 -68.96561,-191.21724 -68.90248,-193.40963 0,-68.26256 -45.36011,-126.09978 -107.51325,-145.06224 l 0,-13.08547 C 274.92109,19.81761 255.10649,0 230.75488,0 206.40327,0 186.58566,19.81761 186.58566,44.16922 l 0,13.08547 C 124.43253,76.22863 79.075287,134.18064 79.086766,203.05443 80.49575,243.94366 70.856691,358.26652 10.169933,395.72369 2.0230772,400.75414 -1.7992588,410.58833 0.81496651,419.81129 3.4320619,429.02565 11.842922,435.3876 21.427459,435.3876 l 128.292171,0 C 158.1965,472.33398 191.27462,500 230.75488,500 c 39.48025,0 72.55838,-27.66602 81.03524,-64.6124 l 128.29218,0 c 9.58453,0 17.99539,-6.36195 20.61249,-15.57631 2.61422,-9.22296 -1.20811,-19.05715 -9.35497,-24.0876 z m -239.8028,-3.19389 -137.457744,0 c 51.179704,-72.23124 48.040334,-185.05329 47.850944,-190.21287 0,-59.99518 48.82087,-108.81031 108.83901,-108.81031 59.99518,0 108.81031,48.81513 108.82466,108.06995 -0.20088,5.77655 -3.34024,118.70764 47.83659,190.95323 l -175.89346,0 z" />
    <g transform="translate(-6.7070021,325.761)" />
    <g transform="translate(-6.7070021,325.761)" />
    <g transform="translate(-6.7070021,325.761)" />
    <g transform="translate(-6.7070021,325.761)" />
    <g transform="translate(-6.7070021,325.761)" />
    <g transform="translate(-6.7070021,325.761)" />
    <g transform="translate(-6.7070021,325.761)" />
    <g transform="translate(-6.7070021,325.761)" />
    <g transform="translate(-6.7070021,325.761)" />
    <g transform="translate(-6.7070021,325.761)" />
    <g transform="translate(-6.7070021,325.761)" />
    <g transform="translate(-6.7070021,325.761)" />
    <g transform="translate(-6.7070021,325.761)" />
    <g transform="translate(-6.7070021,325.761)" />
    <g transform="translate(-6.7070021,325.761)" />
</svg>
