<?xml version="1.0" encoding="UTF-8" standalone="no"?>
<svg 
    version="1.1"
    width="437.53"
    height="500"
    viewBox="0 0 437.53002 500">
    <path d="m 215,130 c -8.28,0 -15,6.715 -15,15 l 0,140 c 0,8.285 6.72,15 15,15 8.28,0 15,-6.715 15,-15 l 0,-140 c 0,-8.285 -6.72,-15 -15,-15 z" />
    <path d="m 437.53,119.035 c 0,0 -7.07,-21.21 -21.215,-35.35 C 402.175,69.54 380.965,62.47 380.965,62.47 l -44.94,44.94 C 312.04,91.01 284.58,79.38 255,73.79 L 255,10 C 255,10 235,0 215,0 195,0 175,10 175,10 l 0,63.79 C 75.51,92.6 0,180.12 0,285 c 0,118.55 96.45,215 215,215 118.55,0 215,-96.45 215,-215 0,-44.855 -13.825,-86.525 -37.41,-121.025 l 44.94,-44.94 z M 215,470 C 112.99,470 30,387.01 30,285 30,182.99 112.99,100 215,100 c 102.01,0 185,82.99 185,185 0,102.01 -82.99,185 -185,185 z" />
</svg>
