<?xml version="1.0" encoding="UTF-8" standalone="no"?>
<svg
    version="1.1"
    width="335.27255"
    height="500"
    viewBox="0 0 335.27255 500">
    <g transform="matrix(1.011423,0,0,1.011423,-82.364221,0)">
        <path d="M 412.92,165.747 C 412.92,74.353 338.563,0 247.181,0 155.79,0 81.434,74.354 81.434,165.747 c 0,37.437 12.252,72.792 35.479,102.248 16.304,20.678 31.842,43.383 45.293,65.895 l 0,100.8 c 0,9.165 7.428,16.594 16.599,16.594 l 18.832,0 0,8.03 c 0,19.35 15.684,35.039 35.039,35.039 l 29.003,0 c 19.354,0 35.038,-15.689 35.038,-35.039 l 0,-8.03 18.832,0 c 9.171,0 16.6,-7.429 16.6,-16.594 l 0,-100.663 c 13.582,-22.795 28.734,-45.023 45.278,-66.025 23.22,-29.439 35.493,-64.801 35.493,-102.255 z m -189.795,146.876 -28.699,-125.108 17.24,-10.626 21.313,20.039 c 1.688,1.573 3.92,2.318 6.222,2.239 2.288,-0.148 4.424,-1.241 5.885,-3.016 l 18.41,-22.446 10.729,20.962 c 1.46,2.853 4.375,4.514 7.388,4.514 1.073,0 2.144,-0.2 3.177,-0.631 l 13.938,-5.784 -27.501,119.857 -48.102,0 0,0 z m 75.831,33.193 0,27.842 -103.559,0 0,-27.842 103.559,0 z m -103.559,72.279 0,-27.842 103.56,0 0,27.842 -103.56,0 z m 110.74,-105.472 -9.385,0 31.421,-136.926 c 1.543,-6.69 -2.642,-13.368 -9.353,-14.908 -6.704,-1.54 -13.367,2.65 -14.902,9.351 l -0.637,2.757 -17.775,7.39 -12.996,-25.42 c -1.281,-2.486 -3.728,-4.165 -6.519,-4.465 -2.806,-0.334 -5.525,0.827 -7.291,2.98 l -20.811,25.371 -19.466,-18.305 c -2.735,-2.553 -6.856,-2.99 -10.032,-1.021 l -17.889,11.005 -0.068,-0.3 c -1.523,-6.687 -8.131,-10.877 -14.925,-9.344 -6.691,1.54 -10.874,8.218 -9.352,14.918 l 31.429,136.915 -9.385,0 c -13.547,-22.32 -29.071,-44.694 -45.23,-65.181 -18.557,-23.53 -28.348,-51.786 -28.348,-81.694 0,-73.089 59.459,-132.558 132.555,-132.558 73.089,0 132.547,59.469 132.547,132.558 0,29.926 -9.805,58.181 -28.361,81.705 -16.363,20.783 -31.57,42.67 -45.227,65.172 z" />
    </g>
</svg>
