<?xml version="1.0" encoding="UTF-8" standalone="no"?>
<svg 
    version="1.1"
    width="387.76291"
    height="500.00003"
    viewBox="0 0 387.76291 500">
    <g transform="matrix(0.05102048,0,0,-0.05102048,-61.212903,255.61209)">
        <path d="M 6617.7,4968.2 C 6136.6,4813.9 5828,4391.8 5828,3888 c 0,-637.7 487.9,-1123.3 1127.8,-1125.6 215.6,0 329,25 515.1,120.3 324.5,163.4 551.4,483.3 603.6,853.2 77.2,551.4 -267.8,1075.6 -814.7,1239 -167.9,50 -476.5,45.5 -642.1,-6.7 z" />
        <path d="m 2923.3,3166.4 c -99.8,-65.8 -805.6,-1207.3 -835.1,-1350.2 -34,-152 6.8,-288.2 118,-401.7 215.6,-215.6 528.7,-174.7 703.5,90.8 40.9,61.3 174.7,274.6 295,472 l 220.1,356.3 737.5,0 735.2,0 -111.2,-177 C 4448.2,1614.2 3377.1,-117.2 3340.8,-185.3 c -40.8,-72.6 -43.1,-145.2 -49.9,-946.3 l -6.8,-869.1 -767,0 c -816.9,0 -962.2,-13.6 -1096.1,-102.1 -138.4,-90.8 -206.5,-236 -217.8,-456.1 -9.1,-163.4 -2.3,-201.9 47.6,-310.9 70.3,-152 195.2,-251.9 363.1,-288.2 81.7,-18.1 503.8,-22.7 1366.1,-18.1 1388.8,6.8 1320.7,0 1418.3,161.1 43.1,68.1 45.4,120.3 45.4,930.4 0,469.7 4.5,855.5 11.3,855.5 6.8,0 272.3,-149.8 590,-333.6 l 578.7,-333.6 0,-1250.4 0,-1250.4 63.5,-124.8 c 38.6,-79.4 95.3,-145.2 158.8,-190.6 90.8,-61.3 118,-68.1 320,-74.9 190.6,-6.8 236,-2.3 315.4,38.6 120.3,61.3 242.8,208.8 274.6,331.3 34,133.9 34,2868.3 0,2990.9 -11.3,47.6 -52.2,120.3 -90.8,161.1 -36.3,43.1 -351.7,254.2 -703.5,469.8 -447.1,274.6 -630.9,401.7 -621.8,424.3 6.8,15.9 197.4,317.7 426.6,667.2 l 413,637.7 11.3,-519.7 c 6.8,-363.1 20.4,-535.5 40.8,-569.6 65.8,-118 84,-120.3 1166.4,-120.3 621.8,0 1037.1,9.1 1089.2,22.7 238.3,68.1 379,363.1 281.4,596.8 -38.6,97.6 -172.5,211 -279.1,240.5 -52.2,15.9 -356.3,25 -746.6,25 -583.2,0 -664.9,4.6 -676.3,36.3 -6.8,20.4 -13.6,313.2 -13.6,655.8 0,660.4 -9.1,726.2 -118,875.9 -59,79.4 -1363.8,964.4 -1493.2,1009.8 -59,22.7 -367.6,29.5 -1261.7,31.8 l -1181.9,0 -74.9,-52.1 z" />
    </g>
</svg>
