<?xml version="1.0" encoding="UTF-8" standalone="no"?>
<svg 
    version="1.1"
    width="453.125"
    height="500"
    viewBox="0 0 453.125 500">
    <path d="M 0,276.5625 C 0,400 101.5625,500 226.5625,500 351.5625,500 453.125,400 453.125,276.5625 453.125,153.125 351.5625,53.125 226.5625,53.125 c 0,0 -1.5625,0 -1.5625,0 L 225,0 140.625,84.375 225,168.75 l 0,-53.125 c 0,0 1.5625,0 1.5625,0 C 317.1875,114.0625 390.625,187.5 390.625,276.5625 390.625,365.625 317.1875,437.5 226.5625,437.5 135.9375,437.5 62.5,365.625 62.5,276.5625 62.5,259.375 65.625,242.1875 71.875,225 L 23.4375,176.5625 C 7.8125,207.8125 0,240.625 0,276.5625 l 0,0 z m 0,0" />
</svg>
