<?xml version="1.0" encoding="UTF-8" standalone="no"?>
<svg
   width="896.492"
   height="769.63489" >
  <path
     d="M 896.492,753.01943 V 16.615432 c 0,-17.51000004 -10.005,-22.012 -22.512,-9.505 L 518.785,362.30543 c -3.001,3.001 -5.002,6.003 -6.503,9.505 V 16.615432 c 0,-17.51000004 -10.005,-22.012 -22.512,-9.505 L 134.575,362.30543 c -3.002,3.001 -5.003,6.003 -6.504,9.505 V 32.624432 c 0,-17.51 -14.508,-32.01800004 -32.018,-32.01800004 H 32.018 C 14.508,0.60643196 0,15.114432 0,32.624432 V 737.01043 c 0,17.51 14.508,32.018 32.018,32.018 h 64.035 c 17.51,0 32.018,-14.508 32.018,-32.018 v -339.186 c 1.501,3.502 3.502,6.504 6.504,9.506 l 355.194,355.194 c 12.507,12.507 22.512,8.005 22.512,-9.505 v -355.195 c 1.501,3.502 3.502,6.504 6.503,9.506 l 355.196,355.194 c 12.507,12.507 22.512,8.005 22.512,-9.505 z" />
</svg>