<?xml version="1.0" encoding="UTF-8" standalone="no"?>
<svg
    width="565.31812"
    height="500"
    viewBox="0 0 565.31811 500">
    <path
        style="stroke:#000000;stroke-width:0.84298271"
        d="m 173.29219,16.549336 c 0,0 -8.32024,34.5623 -8.32024,34.5623 8.99463,3.4394 23.62038,16.6827 31.19036,23.2495 27.43909,23.7805 52.78758,64.732604 67.07614,98.140004 0,0 12.16424,31.1904 12.16424,31.1904 0,0 7.58685,21.9176 7.58685,21.9176 1.36564,-8.8345 11.00092,-33.9048 14.81962,-42.9922 13.13368,-31.3083 29.88374,-61.4956 52.76231,-86.827204 9.88819,-10.9588 20.94812,-21.1589 32.733,-30.0355 0,0 10.1158,-7.3171 10.1158,-7.3171 1.87985,-1.2391 4.69541,-2.6553 5.49625,-4.8808 0.85142,-2.3941 -1.95573,-11.296 -2.61324,-14.2464 0,0 -8.78389,-37.0912997 -8.78389,-37.0912997 0,0 47.20703,13.7237997 47.20703,13.7237997 0,0 85.98426,25.6604 85.98426,25.6604 0,0 43.83509,12.8808 43.83509,12.8808 0,0 -10.95877,11.8017 -10.95877,11.8017 0,0 -27.81843,26.1662 -27.81843,26.1662 0,0 -59.85178,56.522004 -59.85178,56.522004 0,0 -35.40527,32.8005 -35.40527,32.8005 0,0 -13.48774,-54.7939 -13.48774,-54.7939 -9.73645,9.7364 -14.05251,14.1031 -22.35588,25.2895 -24.27793,32.6824 -41.0364,77.8157 -50.87402,117.1746 -9.37398,37.4958 -14.95452,72.8758 -18.79853,111.2737 0,0 -3.22861,42.1491 -3.22861,42.1491 0,0 -0.80927,8.4298 -0.80927,8.4298 0,0 0,9.2729 0,9.2729 0,0 -0.87671,10.9587 -0.87671,10.9587 0,0 0,18.5457 0,18.5457 0,0 -0.84296,13.4877 -0.84296,13.4877 0,0 0,16.0166 0,16.0166 0,0 -74.18249,0 -74.18249,0 0,0 0,-38.7772 0,-38.7772 0,0 -0.80926,-10.1158 -0.80926,-10.1158 0,0 0,-10.9587 0,-10.9587 0,0 -0.8767,-12.6448 -0.8767,-12.6448 0,0 -0.76712,-10.9587 -0.76712,-10.9587 0,0 -1.61852,-21.0746 -1.61852,-21.0746 -4.20649,-43.9953 -9.28967,-80.8168 -20.06299,-123.9185 -9.84604,-39.3926 -27.0176,-85.3267 -51.2955,-118.0176 -8.30338,-11.1863 -12.61945,-15.553 -22.3559,-25.2894 0,0 -4.70385,22.7605 -4.70385,22.7605 0,0 -7.09791,30.3474 -7.09791,30.3474 0,0 -40.463171,-37.0154 -40.463171,-37.0154 0,0 -57.322824,-53.175404 -57.322824,-53.175404 0,0 -25.289483,-23.5782 -25.289483,-23.5782 -4.4087993,-4.2149 -9.1210729,-7.0136 -11.80175808,-12.6784 0,0 36.24825908,-10.9419 36.24825908,-10.9419 0,0 55.636856,-17.1126 55.636856,-17.1126 0,0 53.950891,-16.6067997 53.950891,-16.6067997 0,0 29.5044,-9.2896 29.5044,-9.2896 0.94414,3.3719 -1.71969,12.2231997 -2.63854,16.0165997 z"
        fill="000000" />
</svg>
