<?xml version="1.0" encoding="UTF-8" standalone="no"?>
<svg
   width="134.5396"
   height="150.94562"
   viewBox="0 0 134.5396 150.94562" >
  <g
     transform="matrix(4.2445614,0,0,4.0176564,-353.98619,-953.86826)" />
  <path
     d="M 7.8249997,0.02529139 C 3.129816,0.02529139 0,3.7971049 0,9.4553824 V 141.48212 c 0,5.65827 3.129816,9.43008 7.8249997,9.43008 4.6951823,0 7.8250003,-3.77181 7.8250003,-9.43008 V 9.4564823 c 0,-5.6582764 -3.129818,-9.43119091 -7.8250003,-9.43119091 z"
     style="stroke-width:1.00669563" />
  <path
     d="M 130.62576,67.243469 36.722889,1.4109795 c -2.347571,-1.881306 -5.477362,-1.881306 -7.824932,0 -2.347573,1.881306 -3.912927,4.7027141 -3.912927,8.464224 V 141.54129 c 0,3.76151 1.565354,6.58292 3.912927,8.46423 1.565352,0.9401 2.34757,0.9401 3.912925,0.9401 1.565352,0 2.34757,0 3.912925,-0.9401 L 130.62667,84.173019 c 2.34758,-1.881306 3.91292,-4.702714 3.91292,-8.464224 0,-3.76151 -1.56626,-6.58402 -3.91383,-8.465326 z M 40.634898,124.61174 V 25.862449 l 70.427142,48.90404 z"
     style="stroke-width:1.00531554" />
</svg>
