<?xml version="1.0" encoding="UTF-8" standalone="no"?>
<svg 
    width="363.36105"
    height="500"
    viewBox="0 0 363.36105 500"
    version="1.1">
    <path d="m 3.6230563,6.7399297 c 5.493058,-7.96493 18.4292097,-6.64659997 26.9983797,-6.67405997 0,0 255.427194,0 255.427194,0 0,0 52.18405,0 52.18405,0 6.4818,0.10986 14.99604,-0.16479 19.9398,4.77895997 5.13601,5.10854 5.05361,15.8749403 4.6691,22.6863303 -0.98876,16.91862 -8.0748,22.96098 -24.6089,19.2257 -0.41198,45.1804 -14.83126,92.11858 -40.95075,129.08686 0,0 -41.44512,49.54738 -41.44512,49.54738 -5.24587,6.6466 -12.52417,15.73761 -12.52417,24.6089 0,8.87129 7.2783,17.9623 12.52417,24.6089 0,0 41.44512,49.54738 41.44512,49.54738 26.5864,37.65491 39.93453,83.19236 40.95075,129.08686 32.87595,-7.41563 25.48778,34.19429 21.50532,40.01693 -5.49306,7.96493 -18.42921,6.6466 -26.99838,6.67406 0,0 -255.42719,0 -255.42719,0 0,0 -52.184052,0 -52.184052,0 C 18.64657,499.82427 10.13233,500.09893 5.1885783,495.15517 0.05256927,490.04663 0.13496527,479.28024 0.51947927,472.46885 1.5082293,455.55023 8.5942743,449.50786 25.128378,453.24314 25.540357,407.26625 38.58637,358.98227 65.63968,321.40975 c 0,0 41.00568,-46.69099 41.00568,-46.69099 5.13601,-6.17969 12.90868,-16.45171 13.26573,-24.71876 0.41198,-9.2558 -6.67406,-17.8799 -12.16712,-24.6089 0,0 -39.65988,-46.80085 -39.65988,-46.80085 C 40.481475,140.63322 25.540357,93.66758 25.128378,46.75686 -7.7475727,54.17249 -0.35941073,12.56258 3.6230563,6.7399297 Z M 58.086725,49.50339 c 7.910003,44.19165 6.948718,67.53715 35.100635,107.11463 19.03345,26.77866 60.94548,58.99544 60.94548,93.38198 0,34.6612 -40.48383,61.1652 -61.11027,90.63546 -16.6165,23.75747 -27.218099,50.92064 -31.365357,79.64934 0,0 -3.570488,30.21181 -3.570488,30.21181 0,0 247.187605,0 247.187605,0 -3.76275,-15.46295 -1.73031,-14.80379 -3.57049,-27.46529 -3.955,-27.54768 -15.57282,-56.88061 -31.50269,-79.64933 C 251.3325,316.38361 209.22821,284.08443 209.22821,250 c 0,-35.1281 43.69728,-67.70194 62.84058,-96.12851 14.88619,-22.08209 25.84484,-50.50867 29.63505,-76.90281 1.84018,-12.6615 -0.19226,-12.00233 3.57049,-27.46529 0,0 -247.187605,0 -247.187605,0 z M 92.58313,391.14412 c 9.9699,-11.59035 61.85183,-28.5639 70.97031,-40.26411 5.98743,-7.69028 3.955,-20.04966 4.86135,-29.47026 0,0 4.14726,-74.15628 4.14726,-74.15628 -2.74653,-34.13935 -21.67011,-49.49245 -41.80217,-74.15628 -6.06983,-7.44309 -22.65886,-28.53643 -21.75251,-38.03942 0.85143,-9.00862 11.04105,-8.51424 17.74258,-8.65157 0,0 104.3681,0 104.3681,0 8.6241,0.0275 24.33424,-2.0599 22.79619,11.15091 -2.00497,17.27566 -38.97325,53.96929 -50.01429,71.24496 -19.74755,30.87098 -11.28824,42.07682 -11.23331,74.15628 0.0275,14.06223 -0.30212,21.47786 1.59299,35.70488 1.04368,8.07479 0.46691,23.73 3.955,29.85476 9.44806,16.56157 65.8343,28.37165 75.66687,47.3227 3.57049,6.86632 9.22834,29.77237 2.27962,35.37529 -4.28458,3.43316 -14.94112,2.80146 -20.32431,2.80146 0,0 -173.03132,0 -173.03132,0 0.24718,-11.45303 2.22468,-34.11189 9.77764,-42.87332 z" />
</svg>
