<?xml version="1.0" encoding="UTF-8" standalone="no"?>
<svg
   version="1.1"
   width="500"
   height="500.00131"
   viewBox="0 0 499.99999 500.0013" >
<g
   transform="matrix(1.3216709,0,0,1.3216709,-0.00132167,0)">
	<path
	   d="M 189.156,0 C 84.858,0 0.001,84.858 0.001,189.155 0.001,293.453 84.858,378.31 189.156,378.31 293.46,378.31 378.31,293.453 378.31,189.155 378.31,84.858 293.46,0 189.156,0 Z m 0,347.144 c -87.117,0 -157.988,-70.87 -157.988,-157.988 0,-87.115 70.871,-157.988 157.988,-157.988 87.117,0 157.986,70.873 157.986,157.988 0,87.117 -70.87,157.988 -157.986,157.988 z" />
	<path
	   d="M 204.739,182.963 V 75.841 c 0,-8.606 -6.977,-15.584 -15.583,-15.584 -8.605,0 -15.582,6.978 -15.582,15.584 v 113.314 c 0,4.839 2.25,9.101 5.703,11.962 0.146,0.176 0.245,0.373 0.397,0.546 l 58.438,66.354 c 3.082,3.49 7.381,5.279 11.701,5.279 3.652,0 7.33,-1.276 10.289,-3.888 6.461,-5.692 7.084,-15.537 1.398,-21.998 z" />
</g>
<g transform="matrix(1.3216709,0,0,1.3216709,-0.00132167,0)" />
<g transform="matrix(1.3216709,0,0,1.3216709,-0.00132167,0)" />
<g transform="matrix(1.3216709,0,0,1.3216709,-0.00132167,0)" />
<g transform="matrix(1.3216709,0,0,1.3216709,-0.00132167,0)" />
<g transform="matrix(1.3216709,0,0,1.3216709,-0.00132167,0)" />
<g transform="matrix(1.3216709,0,0,1.3216709,-0.00132167,0)" />
<g transform="matrix(1.3216709,0,0,1.3216709,-0.00132167,0)" />
<g transform="matrix(1.3216709,0,0,1.3216709,-0.00132167,0)" />
<g transform="matrix(1.3216709,0,0,1.3216709,-0.00132167,0)" />
<g transform="matrix(1.3216709,0,0,1.3216709,-0.00132167,0)" />
<g transform="matrix(1.3216709,0,0,1.3216709,-0.00132167,0)" />
<g transform="matrix(1.3216709,0,0,1.3216709,-0.00132167,0)" />
<g transform="matrix(1.3216709,0,0,1.3216709,-0.00132167,0)" />
<g transform="matrix(1.3216709,0,0,1.3216709,-0.00132167,0)" />
<g transform="matrix(1.3216709,0,0,1.3216709,-0.00132167,0)" />
</svg>