<?xml version="1.0" encoding="UTF-8" standalone="no"?>
<svg
   viewBox="0 0 499.99997 375"
   version="1.1"
   width="499.99997"
   height="375" >
  <path
     d="m 125.94682,0 c 124.68439,0 249.36877,0 374.05316,0 0,20.833333 0,41.666667 0,62.5 -124.68439,0 -249.36877,0 -374.05316,0 0,-20.833333 0,-41.666667 0,-62.5 z M 0,0 c 20.99113,0 41.98226,0 62.97339,0 0,20.833333 0,41.666667 0,62.5 C 41.98226,62.5 20.99113,62.5 0,62.5 0,41.666667 0,20.833333 0,0 Z m 0,156.25001 c 20.99113,0 41.98226,0 62.97339,0 0,20.83333 0,41.66666 0,62.49999 -20.99113,0 -41.98226,0 -62.97339,0 0,-20.83333 0,-41.66666 0,-62.49999 z M 0,312.5 c 20.99113,0 41.98226,0 62.97339,0 0,20.83333 0,41.66667 0,62.5 C 41.98226,375 20.99113,375 0,375 0,354.16667 0,333.33333 0,312.5 Z M 125.94682,156.25001 c 124.68439,0 249.36877,0 374.05316,0 0,20.83333 0,41.66666 0,62.49999 -124.68439,0 -249.36877,0 -374.05316,0 0,-20.83333 0,-41.66666 0,-62.49999 z m 0,156.24999 c 124.68439,0 249.36877,0 374.05316,0 0,20.83333 0,41.66667 0,62.5 -124.68439,0 -249.36877,0 -374.05316,0 0,-20.83333 0,-41.66667 0,-62.5 z" />
</svg>
